# xmcd CD database file
#
# Track frame offsets:
#	150
#	11379
#	25916
#	38158
#	52408
#	66723
#	78483
#	90373
#	103814
#	116517
#	129029
#	143109
#	154347
#	169039
#	183086
#	195534
#	209563
#	223438
#	238100
#	249893
#	264408
#	276086
#
# Disc length: 3859 seconds
#
# Revision: 2
# Processed by: cddbd v1.5.2PL0 Copyright (c) Steve Scherf et al.
# Submitted via: CDex 1.70beta2
#
DISCID=3e0f1116
DTITLE=Various Artist - Country Gold - Vol. 3 - (Original Recordings)
DYEAR=2004
DGENRE=Country Classics
TTITLE0=Hank Williams and The Drifting Cowboys - I´ll Never Get Out of This World Alive
TTITLE1=Frankie Laine - Jezebel
TTITLE2=Red Foley with The Cumberland Valley Boys - Tennessee Saturday Night
TTITLE3=Red Foley with The Cumberland Valley Boys - New Jolie Blon
TTITLE4=Vernon Dalhart - Wreck of The Old 97
TTITLE5=Eddy Arnold and His Tennesse Plowboys - Bouquet of Roses
TTITLE6=Tennesse Ernie Ford - The Shot-Gun Boogie
TTITLE7=Hank Williams and The Drifting Cowboys - Hey Good Lockin´
TTITLE8=Jimmy Wakely - One Has my Mame
TTITLE9=Al Dexter - Guitar Polka
TTITLE10=Red Foley with Lawrence Welk and His Orchestra - Shame on You
TTITLE11=Nat King Cole (trio) - Straighten up And Fly Right
TTITLE12=Ernest Tubb - Soldier´s Last Letter
TTITLE13=Tennesse Ernie Ford - Mule Train
TTITLE14=Eddy Arnold and His Tennessee Plowboys - I´ll Hold You in my Heart
TTITLE15=Pee Wee King - Slow Poke
TTITLE16=red Foley with The Dixie Dons - Birmingham Bounce
TTITLE17=Frankie Laine with Paul Weston and His Orchestra - Jealousy
TTITLE18=Hank Williams and The Drifting Cowboys - My Bucket´s Got a Hole in It
TTITLE19=Gene Autry - Rudolph The Red Nosed Reindeer
TTITLE20=Gene Autry - Here Comes Santa Claus
TTITLE21=Gene Autry - Frosty The Snowman
EXTD=Uffe Hassing Jacobsen YEAR: 2004
EXTT0=
EXTT1=
EXTT2=
EXTT3=
EXTT4=
EXTT5=
EXTT6=
EXTT7=
EXTT8=
EXTT9=
EXTT10=
EXTT11=
EXTT12=
EXTT13=
EXTT14=
EXTT15=
EXTT16=
EXTT17=
EXTT18=
EXTT19=
EXTT20=
EXTT21=
PLAYORDER=
